<svg width="25" height="24" viewBox="0 0 25 24" fill="none" xmlns="http://www.w3.org/2000/svg">
<g clip-path="url(#clip0_8_534)">
<path d="M12.5 2C10.6435 2 8.863 2.7375 7.55024 4.05025C6.23749 5.36301 5.49999 7.14348 5.49999 9V12.528C5.50014 12.6831 5.46419 12.8362 5.39499 12.975L3.67799 16.408C3.59412 16.5757 3.55451 16.7621 3.56294 16.9494C3.57137 17.1368 3.62754 17.3188 3.72614 17.4783C3.82473 17.6379 3.96246 17.7695 4.12626 17.8608C4.29005 17.9521 4.47447 18 4.66199 18H20.338C20.5255 18 20.7099 17.9521 20.8737 17.8608C21.0375 17.7695 21.1753 17.6379 21.2738 17.4783C21.3724 17.3188 21.4286 17.1368 21.437 16.9494C21.4455 16.7621 21.4059 16.5757 21.322 16.408L19.606 12.975C19.5365 12.8362 19.5002 12.6832 19.5 12.528V9C19.5 7.14348 18.7625 5.36301 17.4497 4.05025C16.137 2.7375 14.3565 2 12.5 2ZM12.5 21C11.8793 21.0003 11.2739 20.8081 10.767 20.4499C10.2602 20.0917 9.87688 19.5852 9.66999 19H15.33C15.1231 19.5852 14.7398 20.0917 14.233 20.4499C13.7261 20.8081 13.1206 21.0003 12.5 21Z" fill="#9CA3AF"/>
</g>
<defs>
<clipPath id="clip0_8_534">
<rect width="24" height="24" fill="white" transform="translate(0.5)"/>
</clipPath>
</defs>
</svg>
